<svg width="259" height="259" viewBox="0 0 259 259" fill="none" xmlns="http://www.w3.org/2000/svg">
<path d="M84.6494 0C85.4573 0 86.1133 0.655981 86.1133 1.46387V141.436C86.1133 142.928 88.0825 143.464 88.8379 142.177L171.802 0.722656C172.065 0.274972 172.545 0 173.063 0H205.03C234.468 0 258.333 23.8647 258.333 53.3027H258.336V205.03C258.336 234.468 234.471 258.333 205.033 258.333H130.632C129.824 258.333 129.168 257.678 129.168 256.87V116.897C129.168 115.405 127.199 114.869 126.443 116.157L43.4824 257.61C43.219 258.058 42.7388 258.333 42.2207 258.333H1.46387C0.656093 258.333 0.000181979 257.678 0 256.87V1.46387C0 0.655981 0.655981 0 1.46387 0H84.6494Z" fill="white" style="fill:white;fill-opacity:1;"/>
</svg>
