<svg width="1062" height="300" viewBox="0 0 1062 300" fill="none" xmlns="http://www.w3.org/2000/svg">
<path d="M580.548 192.829L586.999 214.416H588.487L594.69 192.829L615.037 125.34H653.992L602.383 264.536C598.909 273.799 594.773 280.995 589.977 286.123C585.18 291.251 579.721 294.808 573.601 296.793C567.48 298.778 560.615 299.77 553.006 299.77H530.427V269.747H546.059C549.863 269.747 553.006 269.251 555.487 268.259C558.134 267.432 560.284 265.942 561.938 263.792C563.758 261.807 565.246 259.243 566.404 256.101L569.532 247.966L518.517 125.34H558.713L580.548 192.829ZM461.398 203.994H462.887L461.15 147.423V77.4521H498.616V258.334H453.706L378.029 133.279H376.54L378.029 185.634V258.334H338.577V77.4521H385.969L461.398 203.994ZM731.235 162.559L734.213 167.521H735.454L738.432 162.559L762.003 125.34H803.439L759.273 189.107L808.153 258.334H764.98L737.438 216.4L734.213 210.694H732.973L729.499 216.4L700.717 258.334H659.776L709.897 190.1L664.49 125.34H707.664L731.235 162.559ZM866.503 258.334H827.796V77.4521H866.503V258.334ZM977.896 77.4521C995.761 77.4521 1010.9 81.2564 1023.3 88.8652C1035.71 96.3089 1045.14 106.813 1051.59 120.377C1058.04 133.941 1061.27 149.821 1061.27 168.017C1061.27 181.415 1059.45 193.739 1055.81 204.987C1052.17 216.07 1046.79 225.582 1039.68 233.521C1032.57 241.461 1023.8 247.581 1013.38 251.882C1003.12 256.183 991.295 258.334 977.896 258.334H900.73V77.4521H977.896ZM84.6494 0C85.4573 0 86.1133 0.655981 86.1133 1.46387V141.436C86.1133 142.928 88.0825 143.464 88.8379 142.177L171.802 0.722656C172.065 0.274972 172.545 0 173.063 0H205.03C234.468 0 258.333 23.8647 258.333 53.3027H258.336V205.03C258.336 234.468 234.471 258.333 205.033 258.333H130.632C129.824 258.333 129.168 257.678 129.168 256.87V116.897C129.168 115.405 127.199 114.869 126.443 116.157L43.4824 257.61C43.219 258.058 42.7388 258.333 42.2207 258.333H1.46387C0.656093 258.333 0.000181979 257.678 0 256.87V1.46387C0 0.655981 0.655981 0 1.46387 0H84.6494ZM939.438 225.333H971.445C978.724 225.333 985.424 224.34 991.544 222.355C997.664 220.37 1002.96 217.145 1007.42 212.679C1011.89 208.213 1015.36 202.258 1017.84 194.814C1020.33 187.371 1021.57 178.19 1021.57 167.272C1021.57 153.047 1019.42 141.798 1015.12 133.527C1010.98 125.257 1005.11 119.302 997.498 115.663C990.054 112.024 981.37 110.204 971.445 110.204H939.438V225.333Z" fill="white" style="fill:white;fill-opacity:1;"/>
</svg>
