<svg width="723" height="223" viewBox="0 0 723 223" fill="none" xmlns="http://www.w3.org/2000/svg">
<path d="M241.971 115.377L248.422 136.964H249.91L256.113 115.377L276.46 47.8877H315.415L263.806 187.084C260.332 196.347 256.196 203.543 251.399 208.671C246.602 213.799 241.144 217.356 235.023 219.341C228.903 221.326 222.038 222.317 214.429 222.317H191.85V192.295H207.481C211.286 192.295 214.429 191.799 216.91 190.807C219.557 189.98 221.707 188.49 223.361 186.34C225.181 184.355 226.669 181.791 227.827 178.648L230.955 170.514L179.939 47.8877H220.136L241.971 115.377ZM122.821 126.542H124.31L122.573 69.9707V0H160.039V180.882H115.129L39.4521 55.8271H37.9629L39.4521 108.182V180.882H0V0H47.3916L122.821 126.542ZM392.658 85.1064L395.636 90.0684H396.877L399.854 85.1064L423.426 47.8877H464.862L420.696 111.655L469.576 180.882H426.403L398.861 138.948L395.636 133.242H394.396L390.922 138.948L362.14 180.882H321.199L371.32 112.647L325.913 47.8877H369.087L392.658 85.1064ZM527.926 180.882H489.219V0H527.926V180.882ZM639.319 0C657.184 0 672.32 3.80421 684.726 11.4131C697.132 18.8567 706.561 29.3609 713.012 42.9248C719.463 56.4888 722.688 72.3689 722.688 90.5645C722.688 103.963 720.87 116.287 717.23 127.535C713.591 138.618 708.215 148.129 701.103 156.069C693.99 164.009 685.222 170.129 674.801 174.43C664.545 178.73 652.718 180.882 639.319 180.882H562.153V0H639.319ZM600.86 147.881H632.868C640.146 147.881 646.846 146.888 652.967 144.903C659.087 142.918 664.381 139.693 668.847 135.227C673.313 130.76 676.786 124.806 679.268 117.362C681.749 109.919 682.989 100.738 682.989 89.8203C682.989 75.5946 680.839 64.346 676.538 56.0752C672.403 47.8046 666.53 41.85 658.921 38.2109C651.477 34.5719 642.793 32.752 632.868 32.752H600.86V147.881Z" fill="white" style="fill:white;fill-opacity:1;"/>
</svg>
